<?xml version="1.0" encoding="utf-8"?>
<!-- Generator: Adobe Illustrator 23.1.1, SVG Export Plug-In . SVG Version: 6.00 Build 0)  -->
<svg version="1.1" id="Calque_1" xmlns="http://www.w3.org/2000/svg" xmlns:xlink="http://www.w3.org/1999/xlink" x="0px" y="0px"
	 viewBox="0 0 130 45" style="enable-background:new 0 0 130 45;" xml:space="preserve">
<style type="text/css">
	.st0{fill:#233A49;}
	.st1{display:none;fill:#233A49;}
</style>
<g>
	<path class="st0" d="M54.6,1.2c-1.2,0-2.3,1-2.3,2.3v30.4c0,1.2,1,2.3,2.3,2.3c1.2,0,2.3-1,2.3-2.3V3.5C56.9,2.2,55.9,1.2,54.6,1.2
		z"/>
	<circle class="st0" cx="62.6" cy="11.9" r="2.6"/>
	<path class="st0" d="M62.6,17.3c-1.2,0-2.3,1-2.3,2.3v14.3c0,1.2,1,2.3,2.3,2.3c1.2,0,2.3-1,2.3-2.3V19.5
		C64.9,18.3,63.9,17.3,62.6,17.3z"/>
	<path class="st1" d="M128.9,26.2v0.2c0,0.9-0.8,1.8-1.8,1.8h-10.7c0,0.2,0.1,0.5,0.2,0.7l0.3,0.8c0.1,0.1,0.1,0.3,0.2,0.4l0.2,0.4
		c0.3,0.5,0.7,0.9,1.2,1.2c0.2,0.1,0.5,0.3,0.7,0.4c0.1,0.1,0.2,0.1,0.4,0.2l0.4,0.1c0.1,0,0.3,0,0.4,0.1h0.5h0.9
		c0.3-0.1,0.6-0.1,0.9-0.2c0.1,0,0.2-0.1,0.4-0.2c0.1,0,0.3-0.1,0.4-0.2c0.5-0.3,0.9-0.7,1.3-1.2c0.6-0.8,1.7-0.9,2.4-0.3
		s0.9,1.7,0.3,2.4c-0.6,0.8-1.4,1.5-2.3,2s-1.9,0.8-2.8,1c-0.5,0.1-1,0.1-1.5,0.1h-0.7c-0.2,0-0.5-0.1-0.8-0.1
		c-0.5-0.1-1-0.2-1.5-0.4c-0.2-0.1-0.5-0.2-0.7-0.3s-0.5-0.2-0.7-0.4c-0.9-0.5-1.7-1.2-2.4-2s-1.2-1.7-1.5-2.6
		c-0.4-0.9-0.5-1.9-0.6-2.9c0-0.2,0-0.5,0-0.7s0-0.5,0-0.7s0-0.5,0.1-0.7c0-0.2,0.1-0.5,0.1-0.7c0.2-1,0.5-1.9,1-2.8
		c0.2-0.4,0.6-0.8,0.9-1.3c0.3-0.4,0.7-0.8,1.1-1.1c0.8-0.7,1.8-1.2,2.7-1.5c0.5-0.2,1-0.3,1.5-0.4s1-0.1,1.5-0.1s1,0.1,1.5,0.2
		s1,0.2,1.5,0.4s0.9,0.5,1.4,0.7c0.5,0.3,0.9,0.6,1.2,1c0.7,0.7,1.3,1.7,1.7,2.6c0.2,0.5,0.3,1,0.5,1.5c0.1,0.5,0.2,1,0.2,1.5v0.1
		C129,25.8,129,26,128.9,26.2z M116.9,23.6c-0.1,0.4-0.3,0.7-0.4,1.1h8.3c0-0.4-0.1-0.7-0.1-1c-0.2-0.5-0.4-1-0.8-1.4
		c-0.2-0.2-0.4-0.4-0.6-0.6c-0.2-0.1-0.5-0.3-0.7-0.4c-0.3-0.1-0.5-0.2-0.8-0.3c-0.3,0-0.6-0.1-0.9-0.1c-0.6,0-1.2,0.1-1.7,0.3
		c-0.1,0.1-0.3,0.1-0.4,0.2l-0.4,0.2c-0.1,0.1-0.2,0.2-0.3,0.3s-0.2,0.2-0.3,0.3c-0.2,0.2-0.4,0.4-0.5,0.6
		C117.1,23.1,117,23.3,116.9,23.6z"/>
	<path class="st0" d="M47.7,21.4c-1.6-1.7-3.9-2.6-6.4-2.6s-4.8,0.9-6.4,2.6c-1.2,1.2-2,2.9-2.2,4.6c-0.3,3.2-2.7,7.2-5,9.4
		c0,0,0.2-0.2,0,0c-2.3,1.9-5.2,2.9-8.2,2.9c-3.5,0-6.8-1.4-9.2-3.8c-2.5-2.5-3.8-5.8-3.8-9.2c0-3.5,1.4-6.8,3.8-9.2
		c2.5-2.5,5.8-3.8,9.2-3.8c3,0,5.9,1,8.2,2.9c1.3,1.1,3.2,0.9,4.3-0.5c1.1-1.3,0.9-3.2-0.5-4.2C29.8,9.1,28,8.1,26,7.3
		c-2.1-0.7-4.3-1.1-6.5-1.1c-2.6,0-5.1,0.5-7.4,1.5S7.8,10,6,11.8s-3.1,3.8-4.1,6.1c-1,2.4-1.5,4.9-1.5,7.4c0,2.6,0.5,5.1,1.5,7.4
		S4.3,37,6,38.8c1.8,1.8,3.8,3.1,6.1,4.1c2.4,1,4.9,1.5,7.4,1.5c2.2,0,4.4-0.4,6.5-1.1c2-0.8,3.9-1.8,5.5-3.1
		c0.3-0.2,0.9-0.9,0.9-0.9c1.5-1.4,2.6-3,3.6-4.8c1.5,1.1,3.3,1.7,5.4,1.7c2.5,0,4.8-0.9,6.4-2.6c1.5-1.6,2.3-3.8,2.3-6.1
		C50,25.1,49.2,22.9,47.7,21.4z M41.6,31.5c-2.3,0-4.1-1.9-4.1-4.1c0-2.3,1.9-4.1,4.1-4.1c2.3,0,4.1,1.9,4.1,4.1
		C45.8,29.6,43.9,31.5,41.6,31.5z"/>
	<path class="st0" d="M90.1,18c-0.4,0.3-0.7,0.6-1,0.9c-0.2-0.7-0.4-1.2-0.9-1.8c-0.4-0.6-1.5-1.6-3-1.6c-2.5,0-3.7,1.5-4.4,3.6
		L76,32.4c-0.1,0.3-0.2,0.3-0.3,0L71,19.8c-0.4-0.9-1.6-1.4-2.5-1s-1.6,1.4-1.2,2.3l6.3,17.4c0.3,0.7,1.1,1.1,2,1.1s1.7-0.4,2-1.1
		l6.9-18.9c0.1-0.2,0.4-0.1,0.4,0.1v14c0,1.1,0.8,2.1,1.9,2.2c1.2,0.1,2.3-0.9,2.3-2.1v-9.7c0-0.1,0-0.1,0-0.2
		c0-1.9,1.4-3.4,3.2-3.4"/>
	<path class="st0" d="M94.2,17.1"/>
</g>
<path class="st0" d="M89.1,18.9c0,0,1.7-2.1,4.5-1.9c3.1,0.2,5,3.3,5,3.3s1.5-3.5,6.1-3.2c3.2,0.2,4.6,2.9,5.3,4.5
	c0.2,0.4,0.3,0.9,0.3,1.3c0.1,0.5,0.1,1.1,0.1,1.3v9.8c0,0,0,2.1-1.9,2.1s-2.2-1.5-2.2-2.1s0-7.9,0-9.9c0-0.4-0.1-0.8-0.2-1.1
	c-0.4-0.8-1.2-2.2-3.2-2.2c-1.4,0-2.6,1.3-2.9,2.5C99.7,24,99.7,34,99.7,34s-0.1,2.2-2.1,2.2c-1.6,0-2.1-1.5-2.1-2.2s0-9.7,0-10.6
	s-1.1-2.9-3.2-2.9c-1.5,0-3,1.3-3.1,2.9s-0.1,10.1-0.1,10.1S89,35.9,87,35.9s-2.1-2.2-2.1-2.2v-14L89.1,18.9z"/>
<path class="st0" d="M127.6,20.9c-1.2-1.9-3.8-3.7-6.7-3.7c-2.5,0-7.2,1-8.4,6.2c-1.4,5.8,1.6,9.3,1.6,9.3s2.4,3,7.1,3.2
	c0.4,0,0.6,0,1.1-0.1c1.2-0.2,3.8-0.9,5.2-3c0,0,0.8-0.7,0-2.1c0,0-0.9-1.2-2-0.6s-1.9,2.4-4.3,2.4c-0.8,0-2.1-0.3-3.1-1.1
	c-0.9-0.7-1.5-2-1.7-3.3h10.7c0,0,0.5,0.1,1.1-0.4c0.7-0.6,0.7-1.5,0.7-1.8C128.9,25.7,128.8,22.8,127.6,20.9z M116.5,24.7
	c0.2-1.9,1.7-3.8,4.4-3.8c3.9,0,3.9,3.8,3.9,3.8H116.5z"/>
</svg>
